<svg xmlns="http://www.w3.org/2000/svg" viewBox="0 0 200 60" fill="none">
  
  <g transform="translate(0,8)">
    <path d="M12 32c-5 0-8-3-8-7 0-4 3-6 7-6 1-3 4-6 8-6s7 3 8 6c1 0 2-1 4-1 5 0 9 3 9 7s-4 7-9 7H12z" fill="#A6D8F5"></path>
    <path d="M34 8 L34.9 11 L38 12 L34.9 13 L34 16 L33.1 13 L30 12 L33.1 11 Z" fill="#F8BBD0"></path>
  </g>
  <text x="54" y="28" font-family="Quicksand, sans-serif" font-weight="700" font-size="22" fill="#1F2A37">星辰</text>
  <text x="54" y="50" font-family="Plus Jakarta Sans, sans-serif" font-weight="500" font-size="13" fill="#6B7785" letter-spacing="0.5">Sin-Cen · AI × Mind</text>
</svg>